<?xml version="1.0" encoding="UTF-8"?>
<svg id="Layer_1" xmlns="http://www.w3.org/2000/svg" version="1.1" xmlns:xlink="http://www.w3.org/1999/xlink" viewBox="0 0 393.33 692">
  <!-- Generator: Adobe Illustrator 30.3.0, SVG Export Plug-In . SVG Version: 2.1.3 Build 182)  -->
  <defs>
    <style>
      .st0 {
        fill: url(#linear-gradient1);
      }

      .st1 {
        fill: #f26e21;
      }

      .st2 {
        fill: url(#linear-gradient);
      }
    </style>
    <linearGradient id="linear-gradient" x1="-923.62" y1="-2260.37" x2="-859.65" y2="-2816.64" gradientTransform="translate(994.96 -2413.44) scale(1 -1)" gradientUnits="userSpaceOnUse">
      <stop offset=".32" stop-color="#fff" stop-opacity="0"/>
      <stop offset=".86" stop-color="#fff"/>
    </linearGradient>
    <linearGradient id="linear-gradient1" x1="-995.06" y1="-2501.46" x2="-701.48" y2="-3094.09" gradientTransform="translate(994.96 -2413.44) scale(1 -1)" gradientUnits="userSpaceOnUse">
      <stop offset="0" stop-color="#fff3a5"/>
      <stop offset=".22" stop-color="#f7de7c"/>
      <stop offset=".28" stop-color="#e2c163"/>
      <stop offset=".39" stop-color="#bf913a"/>
      <stop offset=".45" stop-color="#b27f2b"/>
      <stop offset=".48" stop-color="#ba8a34"/>
      <stop offset=".54" stop-color="#cfa74d"/>
      <stop offset=".62" stop-color="#f2d776"/>
      <stop offset=".63" stop-color="#f7de7c"/>
      <stop offset=".71" stop-color="#f1d574"/>
      <stop offset=".84" stop-color="#e1bf60"/>
      <stop offset="1" stop-color="#c99c40"/>
    </linearGradient>
  </defs>
  <path class="st2" d="M158.67,9.45s-128.63,201.78-29.4,407.27c0,0-111.45-178.83-98.12-410.98l127.52,3.71Z"/>
  <path class="st0" d="M279.8,683.6s-155.94-76.48-235.56-357.55C-3.42,157.82,10.42,18.88,10.42,18.88c0,0-17.15,446.96,374.91,664.74l-105.54-.02Z"/>
  <path class="st1" d="M265.86,683.62s-145.33-66.36-226.32-336.63c0,0,32.39,223.03,166.45,336.63h59.87Z"/>
  <path class="st1" d="M250.56,20.4c-48.61,38.81-141.2,131.76-149.21,281.54,0,0-12.54-151.55,73.44-281.54h75.76Z"/>
</svg>